# xmcd CD database file
#
# Track frame offsets:
#	150
#	20620
#	38340
#	55625
#
# Disc length: 1011 seconds
#
# Revision: 0
# Processed by: cddbd v1.5.1PL0 Copyright (c) Steve Scherf et al.
# Submitted via: CDex 1.51
#
DISCID=2203f104
DTITLE=a.mia - lost in your eyes 〜永遠〜
DYEAR=2004
DGENRE=JPop
TTITLE0=lost in your eyes 〜永遠〜
TTITLE1=la*la*la*
TTITLE2=lost in your eyes (food for roots mix)
TTITLE3=lost in your eyes 〜永遠〜 (instrumental)
EXTD=YEAR: 2004
EXTT0=
EXTT1=
EXTT2=
EXTT3=
PLAYORDER=
